<svg xmlns="http://www.w3.org/2000/svg" width="25" height="24" fill="none"><g fill="#fff" clip-path="url(#a)"><path d="M23.273 24h-21.6c-.68 0-1.2-.518-1.2-1.196V7.415c0-.677.52-1.196 1.2-1.196h21.6c.68 0 1.2.519 1.2 1.196v15.429c0 .638-.52 1.156-1.2 1.156Zm-20.4-2.392h19.2V8.61h-19.2v12.997Z"/><path d="M23.273 24c-.68 0-1.2-.518-1.2-1.196V3.588h-19.2v19.216c0 .678-.52 1.196-1.2 1.196-.68 0-1.2-.518-1.2-1.196V2.392c0-.678.52-1.196 1.2-1.196h21.6c.68 0 1.2.518 1.2 1.196v20.412c0 .678-.52 1.196-1.2 1.196Z"/><path d="M18.273 5.223c-.6 0-1.08-.479-1.08-1.077v-3.07c0-.598.48-1.076 1.08-1.076.6 0 1.08.478 1.08 1.076v3.11c-.04.558-.48 1.037-1.08 1.037ZM12.473 5.223c-.6 0-1.08-.479-1.08-1.077v-3.07c.04-.598.52-1.076 1.08-1.076s1.08.478 1.08 1.076v3.11c0 .558-.48 1.037-1.08 1.037ZM6.714 5.223c-.6 0-1.08-.479-1.08-1.077v-3.07C5.634.478 6.114 0 6.714 0c.6 0 1.08.478 1.08 1.076v3.11c-.04.558-.52 1.037-1.08 1.037Z"/></g><defs><clipPath id="a"><path fill="#fff" d="M.474 0h24v24h-24z"/></clipPath></defs></svg>