<svg xmlns="http://www.w3.org/2000/svg" width="16" height="16" fill="none"><g clip-path="url(#a)"><path fill="#fff" fill-opacity=".9" d="M13.813 15.5C6.213 15.5 0 9.685 0 2.547 0 1.423.987.5 2.187.5h2.72c.88 0 1.573.649 1.573 1.473 0 1.073.24 2.096.72 3.07a.731.731 0 0 1-.16.848L5.867 6.964c-.107.1-.16.25-.16.4 0 .15.053.274.16.399L8.24 9.984c.213.2.613.2.827 0l1.146-1.073c.24-.225.587-.275.907-.15 1.04.45 2.16.674 3.333.674.854 0 1.574.649 1.574 1.473v2.545C16 14.576 15.04 15.5 13.813 15.5ZM2.187 1.998c-.32 0-.587.25-.587.549 0 6.314 5.493 11.455 12.213 11.455.32 0 .587-.25.587-.549v-2.52c-1.2 0-2.347-.2-3.44-.624l-.747.699c-.4.374-.96.599-1.546.599a2.33 2.33 0 0 1-1.547-.6l-2.373-2.22c-.4-.375-.64-.9-.64-1.448 0-.55.24-1.049.64-1.448l.773-.724a8.252 8.252 0 0 1-.64-3.194H2.187v.024Z"/></g><defs><clipPath id="a"><path fill="#fff" d="M0 .5h16v15H0z"/></clipPath></defs></svg>