<svg xmlns="http://www.w3.org/2000/svg" width="16" height="16" fill="none"><path fill="#fff" fill-opacity=".9" d="M8 15.5c-.302 0-.604-.15-.741-.401-.192-.377-.055-.828.357-1.004 5.93-2.759 5.737-6.647 5.737-6.672v-.05c0-2.96-2.388-5.368-5.353-5.368S2.647 4.413 2.647 7.373c0 .426-.357.752-.823.752C1.357 8.125 1 7.8 1 7.373 1 3.585 4.13.5 8 .5c3.843 0 7 3.06 7 6.848.027.426.055 4.991-6.643 8.077A.82.82 0 0 1 8 15.5Z"/><path fill="#fff" fill-opacity=".9" d="M8 15.5a.82.82 0 0 1-.357-.075C.945 12.339.973 7.775 1 7.348 1 3.56 4.157.5 8 .5c3.87 0 7 3.085 7 6.873 0 .426-.357.752-.824.752-.466 0-.823-.326-.823-.752 0-2.96-2.388-5.368-5.353-5.368S2.647 4.413 2.647 7.373v.05c0 .15-.137 3.963 5.737 6.672.412.176.577.652.357 1.004-.137.25-.44.401-.741.401Z"/><path fill="#fff" fill-opacity=".9" d="M8 9.655c-1.784 0-3.24-1.329-3.24-2.96 0-1.63 1.456-2.96 3.24-2.96 1.784 0 3.24 1.33 3.24 2.96 0 1.631-1.456 2.96-3.24 2.96Zm0-4.414c-.878 0-1.592.652-1.592 1.455 0 .802.714 1.454 1.592 1.454.878 0 1.592-.652 1.592-1.454 0-.803-.714-1.455-1.592-1.455Z"/></svg>