<svg xmlns="http://www.w3.org/2000/svg" width="22" height="24" fill="none"><path fill="#fff" d="M10.973 24c-.452 0-.905-.24-1.111-.642-.288-.602-.083-1.325.535-1.605 8.894-4.415 8.606-10.636 8.606-10.676v-.08c0-4.736-3.582-8.589-8.03-8.589-4.447 0-8.029 3.853-8.029 8.589 0 .682-.535 1.204-1.235 1.204-.7 0-1.235-.522-1.235-1.204C.474 4.937 5.168 0 10.974 0c5.764 0 10.5 4.896 10.5 10.957.04.682.082 7.986-9.965 12.923-.165.08-.33.12-.536.12Z"/><path fill="#fff" d="M10.973 24c-.205 0-.37-.04-.535-.12C.391 18.943.432 11.639.474 10.957.474 4.897 5.209 0 10.974 0c5.805 0 10.5 4.936 10.5 10.997 0 .682-.536 1.204-1.236 1.204s-1.235-.522-1.235-1.204c0-4.736-3.582-8.589-8.03-8.589-4.447 0-8.029 3.853-8.029 8.589v.08c0 .24-.206 6.341 8.606 10.676.618.28.865 1.043.535 1.605-.206.401-.659.642-1.112.642Z"/><path fill="#fff" d="M10.974 14.649c-2.677 0-4.86-2.127-4.86-4.736s2.183-4.736 4.86-4.736c2.676 0 4.858 2.127 4.858 4.736s-2.182 4.736-4.858 4.736Zm0-7.064c-1.318 0-2.389 1.044-2.389 2.328 0 1.284 1.07 2.328 2.389 2.328 1.317 0 2.388-1.044 2.388-2.328 0-1.284-1.07-2.328-2.388-2.328Z"/></svg>