<svg xmlns="http://www.w3.org/2000/svg" width="26" height="27" fill="none"><g fill="#F8F8FF" stroke="#000" clip-path="url(#a)"><path d="M21.387 12.263v-.004c-.046-5.348-4.338-9.655-9.644-9.655-5.302 0-9.643 4.304-9.643 9.659a9.625 9.625 0 0 0 9.643 9.659c1.692 0 3.38-.458 4.84-1.28l.002-.002c.371-.212.887-.072 1.094.291.212.372.073.888-.287 1.096a11.786 11.786 0 0 1-5.649 1.456C5.52 23.483.5 18.453.5 12.263.5 6.07 5.521 1 11.743 1c6.223 0 11.244 5.027 11.244 11.263a11.63 11.63 0 0 1-1.495 5.657c-.208.362-.723.502-1.094.29-.36-.207-.502-.722-.292-1.095.872-1.473 1.28-3.124 1.28-4.852Z"/><path d="m3.379 7.414-.002.003A9.974 9.974 0 0 0 2.1 12.263c0 5.309 4.295 9.659 9.643 9.659a9.625 9.625 0 0 0 9.644-9.66c0-5.354-4.342-9.658-9.644-9.658-1.691 0-3.379.458-4.838 1.28l-.003.002c-.371.212-.887.072-1.094-.292-.213-.372-.072-.889.289-1.097A11.579 11.579 0 0 1 11.743 1c6.179 0 11.2 5.026 11.2 11.263 0 6.234-5.019 11.22-11.2 11.22C5.52 23.483.5 18.453.5 12.263c0-1.993.539-3.949 1.495-5.657.208-.362.723-.502 1.093-.29.363.208.504.725.291 1.098Z"/><path d="m18.625 19.142.008-.007.008-.008c.333-.334.827-.311 1.097-.016l.007.008.008.008 5.503 5.513c.334.334.311.83.016 1.101l-.008.007-.008.008A.821.821 0 0 1 24.7 26a.748.748 0 0 1-.556-.244l-5.503-5.512c-.335-.335-.311-.83-.016-1.102Z"/></g><defs><clipPath id="a"><path fill="#fff" d="M0 .5h26v26H0z"/></clipPath></defs></svg>